<svg viewbox="0 0 310 79" fill="none" xmlns="http://www.w3.org/2000/svg">
  <path d="M252.758 30.084c-7.359 1.64-15.537-1.23-15.537-1.23h-.002a25.288 25.288 0 0 1-2.043-2.46c-1.227-1.643-2.044 4.1-2.044 4.1s-3.272 1.64-3.681 3.691a39.069 39.069 0 0 1-1.356 4.563 1.63 1.63 0 0 0 .2 1.486c.567.84 1.22 1.62 1.95 2.323a3.356 3.356 0 0 0 2.496.828c1.128-.09 3.144-.034 6.524.644 6.132 1.232 4.905 8.614 4.905 8.614s-4.087 9.844-6.951 10.256c-2.861.41-2.452 4.101 0 4.101 2.457 0 4.501-2.87 4.501-2.87a138.934 138.934 0 0 0 9.924-8.14c1.861 3.306 2.341 7.32 2.341 7.32s-3.27 2.05-1.227 2.87c2.044.82 4.908-.82 4.908-.82l3.259-14.899c7.746-1.282 19.125 1.097 24.946 2.83l3.276 5.915-.818 4.101s-2.452.412-2.044 2.463c.409 2.05 5.725-.82 5.725-.82l2.044-7.796.051-.153c2.646 1.083 5.727 2.163 7.309 2.617 2.861.819 4.496 4.101 4.496 4.101s-2.044 1.64-1.226 2.46c.867.872 5.316 0 5.316-.41s-3.272-11.074-3.272-11.074l-5.723-8.613s-.409-6.974-2.046-11.487c-.919-2.537 1.006-5.723 2.87-8.026a27.307 27.307 0 0 0 5.345-10.546C310.649 2.01 302.992.47 298.72.63a5.951 5.951 0 0 0-4.839 2.695c-.466.746-.696 1.534-.236 2.15 1.227 1.64 6.134-.82 6.134-.82 11.447 6.973-8.997 22.97-8.997 22.97-7.358-1.232-21.26-.412-22.486 0-1.227.41-15.538 2.46-15.538 2.46ZM17.564 67.74c-2.337-.085-4.612-.728-6.823-1.93-2.17-1.163-4.088-2.84-5.757-5.038-1.629-2.24-2.9-4.98-3.818-8.213C.247 49.323-.13 45.59.039 41.359c.168-4.23.919-7.984 2.254-11.26 1.375-3.278 3.065-5.994 5.068-8.15 2.002-2.2 4.192-3.816 6.571-4.854 2.42-1.035 4.798-1.431 7.135-1.181 1.418.167 2.67.56 3.754 1.18a10.89 10.89 0 0 1 2.817 2.305c.793.87 1.46 1.823 2.003 2.861.542.996.98 1.97 1.314 2.923.25.25.52.372.814.372.793.045 1.5-.537 2.128-1.74.668-1.247 1.229-3.277 1.69-6.097l1.752.186c-.374 1.41-.793 3.05-1.252 4.916-.429 1.88-.825 3.767-1.189 5.66-.33 1.923-.621 3.852-.875 5.787a31.921 31.921 0 0 0-.187 5.163 8.096 8.096 0 0 0-1.755-.497c-.494-.117-.997-.2-1.503-.25a7.628 7.628 0 0 0-1.375 0c.083-2.572 0-5.038-.251-7.403-.208-2.362-.625-4.438-1.252-6.222-.625-1.823-1.458-3.297-2.502-4.417a5.455 5.455 0 0 0-3.755-1.866c-1.335-.125-2.777.167-4.32.87-1.543.664-3.004 1.888-4.38 3.672-1.377 1.741-2.565 4.088-3.567 7.032-1 2.943-1.628 6.615-1.877 11.01-.12 2.45-.037 4.906.251 7.343.291 2.57.876 4.956 1.752 7.154.876 2.155 2.064 3.96 3.567 5.412 1.501 1.41 3.4 2.097 5.696 2.052a12.252 12.252 0 0 0 4.881-1.367c1.292-.706 2.563-1.763 3.818-3.175 1.25-1.407 2.147-3.44 2.69-6.095l2.066 1.243c-.334 1.08-.836 2.426-1.503 4.045a20.386 20.386 0 0 1-2.753 4.603 14.203 14.203 0 0 1-4.257 3.732c-1.669 1.038-3.65 1.513-5.944 1.434Zm50.878-6.783a10.486 10.486 0 0 1-.625 1.806 5.39 5.39 0 0 1-1.252 1.677c-.561.55-1.249.957-2.003 1.184-.75.29-1.648.31-2.692.061a4.104 4.104 0 0 1-2.502-1.741c-.585-.913-1.001-2.073-1.252-3.486-.434.657-.916 1.28-1.442 1.867a8.913 8.913 0 0 1-2.003 1.68 8.542 8.542 0 0 1-2.624 1.245c-.962.332-2.024.456-3.194.371a9.657 9.657 0 0 1-4.254-1.306 10.17 10.17 0 0 1-3.068-2.734 12.644 12.644 0 0 1-1.877-3.92 12.665 12.665 0 0 1-.312-4.542c.165-1.577.584-2.925 1.252-4.046.708-1.12 1.584-2.012 2.628-2.675 1.04-.704 2.232-1.182 3.567-1.431a15.194 15.194 0 0 1 4.13-.186c1.878.207 3.443.77 4.695 1.68 1.25.871 2.21 1.845 2.879 2.923.208-1.906.27-3.94.186-6.095a21.797 21.797 0 0 0-1.001-5.972c-.585-1.827-1.482-3.319-2.691-4.481-1.21-1.203-2.858-1.784-4.943-1.741-1.46 0-2.67.268-3.632.81a7.559 7.559 0 0 0-2.253 1.804 6.402 6.402 0 0 0-1.124 2.177 6.307 6.307 0 0 0-.316 1.677c0 .417.126.892.377 1.434.251.496.606.974 1.063 1.428.46.417 1.001.749 1.629.995.624.25 1.335.314 2.128.186a3.375 3.375 0 0 0 1.439-.557c.417-.292.75-.624 1.001-.996.249-.371.417-.77.5-1.18.12-.384.183-.783.187-1.185a1.56 1.56 0 0 0-.374-1.056 2.479 2.479 0 0 0-.876-.749 1.717 1.717 0 0 0-1.127-.122c-.43.047-.83.245-1.127.557.393-.037.788.05 1.127.25.374.167.56.539.56 1.12 0 .457-.186.81-.56 1.06a2.13 2.13 0 0 1-1.252.246 2.15 2.15 0 0 1-1.253-.557c-.373-.374-.56-.935-.56-1.68 0-.707.29-1.31.876-1.806a3.318 3.318 0 0 1 2.128-.745c.958 0 1.834.371 2.627 1.12.833.743 1.252 1.78 1.252 3.108 0 .457-.125.956-.376 1.495a4.476 4.476 0 0 1-1.001 1.43 5.957 5.957 0 0 1-1.816 1.182c-.748.292-1.629.435-2.628.435-1 0-1.898-.186-2.691-.557a7.399 7.399 0 0 1-2.003-1.495 7.24 7.24 0 0 1-1.252-1.99 6.656 6.656 0 0 1-.374-2.116c0-.664.208-1.492.625-2.488.416-1.038 1.065-2.012 1.941-2.925.916-.913 2.043-1.699 3.378-2.362 1.378-.664 3.004-.998 4.881-.998 5.05 0 8.534 1.762 10.454 5.29 1.917 3.483 2.23 8.688.937 15.614-.5 2.779-.771 5.04-.814 6.782-.04 1.741.064 3.132.315 4.167.248 1.038.603 1.763 1.063 2.177.502.417 1.022.664 1.564.748.441.085.897.042 1.314-.124.359-.097.684-.29.94-.558.334-.334.56-.83.689-1.494l.812.31Zm-10.574-3.174a36.507 36.507 0 0 1 .186-4.725c-.333-1.288-1.022-2.469-2.066-3.55-1.002-1.12-2.15-1.783-3.442-1.99a8.16 8.16 0 0 0-3.004.063 6.2 6.2 0 0 0-2.692 1.12 5.474 5.474 0 0 0-1.877 2.302c-.46.996-.625 2.22-.5 3.671.21 2.238.834 3.94 1.878 5.102 1.084 1.16 2.67 1.678 4.756 1.553 1.586-.08 2.92-.478 4.005-1.181a13.138 13.138 0 0 0 2.753-2.363l.003-.002Zm25.468 3.424c.961 0 1.859-.332 2.692-.995.835-.664 1.417-1.784 1.751-3.361l1.317.496c-.126.996-.524 2.012-1.191 3.05a9.342 9.342 0 0 1-2.564 2.549c-1.044.706-2.235 1.162-3.57 1.37-1.292.21-2.627 0-4.005-.622-1.5-.706-2.585-1.619-3.252-2.737a9.573 9.573 0 0 1-1.255-3.857 26.007 26.007 0 0 1-.062-4.79c.126-1.742.187-3.547.187-5.416 0-1.075-.019-2.341-.061-3.793 0-1.492-.04-3.069-.126-4.728a109.572 109.572 0 0 0-.248-5.102l-.374-5.227c-1.42.168-2.777.375-4.07.624-1.254.207-2.317.478-3.193.807a2.988 2.988 0 0 1 0-.87c0-.207.022-.393.064-.558v-.624a5.33 5.33 0 0 0-.125-.995c1.001-.082 2.106-.167 3.316-.25l3.819-.247-.126-1.68a20.778 20.778 0 0 0-.187-1.68c-.21-1.951-.606-3.504-1.19-4.667-.543-1.16-1.149-2.052-1.816-2.675-.668-.622-1.293-1.036-1.878-1.245-.428-.19-.866-.356-1.313-.497l.186-1.181c.794.332 1.776.557 2.943.685 1.17.08 2.377.08 3.632 0a27.49 27.49 0 0 0 3.754-.624c1.25-.292 2.336-.664 3.252-1.12-.416 1.162-.79 3.007-1.124 5.537a169.916 169.916 0 0 0-.753 8.834c2.17-.124 3.736-.292 4.694-.496-.208.25-.312.663-.312 1.245 0 .539.061 1.035.187 1.492a19.391 19.391 0 0 0-2.251-.125 46.839 46.839 0 0 0-2.444-.061c-.127 2.508-.21 5.017-.248 7.528-.042 2.612-.021 5.203.062 7.778.125 2.53.293 5.017.502 7.464.248 2.405.56 4.624.937 6.657.334 1.453.918 2.488 1.754 3.111.833.622 1.73.953 2.69.996Zm59.455-38.262a27.305 27.305 0 0 0-2.566 1.927c-.836.706-1.565 1.62-2.19 2.737-.627 1.12-1.105 2.53-1.442 4.231-.331 1.66-.416 3.775-.248 6.345.083 1.701.166 3.549.251 5.54.125 1.948.144 3.917.061 5.908a36.846 36.846 0 0 1-.689 5.787 15.439 15.439 0 0 1-1.877 4.914 10.58 10.58 0 0 1-3.503 3.546c-1.461.913-3.298 1.412-5.509 1.494-1.628.083-3.065-.145-4.317-.684a10.61 10.61 0 0 1-3.191-2.177 13.418 13.418 0 0 1-2.19-3.236 25.284 25.284 0 0 1-1.442-3.857 27.52 27.52 0 0 1-2.251 4.728 9.866 9.866 0 0 1-3.319 3.485c-1.335.91-2.964 1.43-4.881 1.556-1.877.164-4.15-.21-6.82-1.12-1.962-.664-3.506-1.62-4.632-2.862a12.774 12.774 0 0 1-2.502-4.295 18.566 18.566 0 0 1-.94-5.038c-.15-3.228.06-6.462.625-9.644.652-3.588 1.175-7.2 1.567-10.825.294-2.405.334-4.54.125-6.408-.208-1.909-.75-3.485-1.628-4.727-.834-1.288-2.169-2.137-4.006-2.552l.315-1.244c.793.124 1.73.27 2.817.435 1.085.167 2.211.31 3.378.435 1.17.082 2.318.125 3.445.125a17.019 17.019 0 0 0 3.127-.372c-.209 1.617-.5 3.629-.876 6.034a449.842 449.842 0 0 0-1.939 15.863c-.24 2.607-.387 5.222-.438 7.839-.125 4.937.438 8.547 1.688 10.828 1.295 2.28 3.546 3.397 6.761 3.358 1.626-.04 2.94-.746 3.941-2.116 1.001-1.367 1.773-3.069 2.315-5.102.588-2.03.983-4.189 1.191-6.469.194-2.111.34-4.227.438-6.344.04-1.911.04-3.756 0-5.54a45.41 45.41 0 0 0-.374-5.038 25.267 25.267 0 0 0-.878-4.107c-.334-1.245-.751-2.24-1.253-2.986a22.779 22.779 0 0 1 3.004.064c.836.08 1.608.185 2.315.31.753.082 1.522.143 2.318.186.793.042 1.73-.043 2.815-.25a51.498 51.498 0 0 0-2.254 8.463 80.86 80.86 0 0 0-.625 5.412 104.848 104.848 0 0 0-.187 6.658c.043 2.487.166 4.749.374 6.78.251 2.033.667 3.753 1.255 5.165.625 1.367 1.458 2.384 2.502 3.047 1.084.624 2.483.77 4.192.436 1.709-.372 3.044-1.221 4.005-2.549.962-1.327 1.648-2.967 2.065-4.916.459-1.95.71-4.127.753-6.532.082-2.448.082-4.938 0-7.467a80.071 80.071 0 0 0-.438-6.53c-.209-1.827-.542-3.319-1.002-4.481-.419-1.163-.961-2.034-1.629-2.615a4.654 4.654 0 0 0-2.44-1.181l.187-1.367a38.3 38.3 0 0 0 7.888.435 43.482 43.482 0 0 0 8.51-1.433l.251 1.99-.003.003Zm0 40.003a7.188 7.188 0 0 0 3.818-2.925 5.155 5.155 0 0 0 .812-1.927c.919-4.231 1.378-8.255 1.378-12.07 0-3.857-.294-7.154-.876-9.893a7.157 7.157 0 0 0-.94-2.427 6.728 6.728 0 0 0-1.565-1.74c-.667-.582-1.522-.957-2.563-1.121l-.064-.995c.833.082 1.607.145 2.315.185h3.693c.499.043 1.001.064 1.5.064.46.04.919.061 1.378.061.502 0 .98.043 1.442.125a140.127 140.127 0 0 0-.315 4.605 206.961 206.961 0 0 0-.187 4.168 73.728 73.728 0 0 0-.125 4.231 159.76 159.76 0 0 0-.187 5.038 67.784 67.784 0 0 0 .061 5.102c.083 1.62.23 3.048.438 4.293.208 1.202.542 1.99 1.001 2.362.251.167.585.335 1.002.5.334.166.771.331 1.314.498.584.165 1.292.332 2.128.497l.061 1.059a23.983 23.983 0 0 0-2.44 0h-2.003c-.708.04-1.375.06-2.003.06-.876.043-1.816.126-2.814.25-.836.083-1.773.186-2.817.31-1.042.126-2.046.272-3.004.436l-.438-.746Zm6.446-37.269c-1.293.085-2.297-.204-3.004-.868-.711-.706-1.106-1.494-1.188-2.365a3.454 3.454 0 0 1 .688-2.426c.583-.788 1.501-1.266 2.751-1.433 1.295-.165 2.317.106 3.07.812.791.703 1.25 1.513 1.376 2.426.125.87-.107 1.72-.689 2.548-.585.789-1.586 1.224-3.004 1.306ZM189.541 79a14.02 14.02 0 0 1-4.318-.685 8.825 8.825 0 0 1-3.693-2.301c-1.041-1.035-1.816-2.448-2.315-4.232-.502-1.74-.563-3.92-.187-6.532.291-1.991.521-3.94.686-5.848.203-1.776.265-3.566.187-5.352-.08-1.659-.373-3.11-.875-4.353a5.978 5.978 0 0 0-2.441-2.986c-1.041-.706-2.398-1.12-4.067-1.248-1.669-.122-3.693.167-6.072.873.086 1.784.187 3.465.313 5.039.168 1.577.355 2.986.563 4.231.126 1.245.355 2.323.689 3.236a7.245 7.245 0 0 0 1.065 2.115c.46.622 1.042.85 1.752.685l-.438 1.556a13.45 13.45 0 0 0-2.878-.624 18.111 18.111 0 0 0-3.381-.061 24.9 24.9 0 0 0-3.754.557 16.618 16.618 0 0 0-3.632 1.31l-.312-1.06c.627-.454 1.191-.87 1.69-1.242a5.34 5.34 0 0 0 1.314-1.434c.419-.578.774-1.327 1.065-2.237.294-.914.542-2.137.751-3.672.208-1.534.459-3.525.75-5.972.334-2.487.628-5.163.876-8.025.251-2.861.419-5.808.502-8.834.083-3.029 0-5.85-.251-8.462a30.232 30.232 0 0 0-1.127-5.288 11.091 11.091 0 0 0-.812-1.93 7.199 7.199 0 0 0-1.065-1.741 5.337 5.337 0 0 0-1.439-1.306 3.416 3.416 0 0 0-1.691-.56v-.935c.793.125 1.691.271 2.692.435 1.041.125 2.211.21 3.506.25 1.335.042 2.814-.021 4.443-.186 1.669-.207 3.525-.602 5.57-1.181v1.242c-.753.414-1.442.85-2.067 1.306a6.621 6.621 0 0 0-1.751 1.805c-.502.789-.94 1.827-1.314 3.111-.374 1.285-.646 2.987-.814 5.102-.209 1.991-.438 4.293-.689 6.905a101.495 101.495 0 0 0-.313 8.088v3.05c0 .995.043 1.99.126 2.986a21.85 21.85 0 0 0 5.383-2.74 26.275 26.275 0 0 0 4.005-3.543c1.084-1.248 1.917-2.447 2.502-3.61.585-1.16.876-2.155.876-2.986a6.564 6.564 0 0 0-.438-1.68 3.37 3.37 0 0 0-.94-1.12c-.416-.372-.98-.58-1.687-.622l.187-1.556c2.587.332 5.068.478 7.449.436a19.443 19.443 0 0 0 7.13-1.68l.254 1.247c-.628.29-1.191.579-1.691.868-.502.25-.98.56-1.442.934-.413.372-.833.871-1.249 1.492a19.735 19.735 0 0 0-1.378 2.304 32.245 32.245 0 0 1-1.501 2.735 24.329 24.329 0 0 1-2.253 3.113 21.458 21.458 0 0 1-2.94 2.862 14.72 14.72 0 0 1-3.568 2.115c3.338-.084 5.944.789 7.824 2.612 1.877 1.784 2.937 4.752 3.191 8.898.08 2.151-.109 4.304-.563 6.408-.46 2.116-.855 4.107-1.191 5.973-.334 1.906-.457 3.61-.374 5.102.083 1.534.707 2.734 1.877 3.607 1.127.87 2.232 1.389 3.316 1.556 1.127.207 2.171.125 3.13-.25.961-.332 1.794-.913 2.504-1.741a9.018 9.018 0 0 0 1.752-2.925c.374-1.12.542-2.095.499-2.923a4.142 4.142 0 0 0-.56-1.99 3.118 3.118 0 0 0-1.317-1.121 3.605 3.605 0 0 0-1.629-.372c-1.166 0-2.208.433-3.126 1.304-.919.873-1.418 2.012-1.504 3.424-.053.423.011.853.187 1.242.168.332.377.582.628.749.293.207.585.35.876.435.307.083.632.083.94 0 .542-.085 1.084-.395 1.628-.934a2.354 2.354 0 0 0 .812-1.93 3.81 3.81 0 0 1-.94.435 2.64 2.64 0 0 1-1.063.25 1.25 1.25 0 0 1-.814-.31c-.208-.165-.312-.497-.312-.996 0-.582.208-1.035.624-1.37.46-.29.962-.435 1.504-.435s1.041.167 1.5.499c.46.371.689.913.689 1.62.043 1.366-.416 2.508-1.378 3.418-.915.956-2.002 1.433-3.252 1.433-.918 0-1.647-.27-2.189-.81a4.16 4.16 0 0 1-1.066-1.929 6.236 6.236 0 0 1 0-2.487 7.355 7.355 0 0 1 1.127-2.551c.542-.749 1.252-1.391 2.128-1.93.919-.496 2.003-.746 3.255-.746.876 0 1.605.165 2.19.496.55.303 1.021.73 1.375 1.248.376.536.649 1.118.814 1.739.169.624.251 1.247.251 1.866a9.287 9.287 0 0 1-.502 3.424 8.848 8.848 0 0 1-1.687 2.986 7.843 7.843 0 0 1-2.817 2.052c-1.127.54-2.42.81-3.88.81Zm.937-16.052a7.181 7.181 0 0 0 3.818-2.925 5.179 5.179 0 0 0 .815-1.927c.916-4.231 1.375-8.255 1.375-12.07 0-3.857-.294-7.154-.876-9.893a7.154 7.154 0 0 0-.937-2.427 6.746 6.746 0 0 0-1.565-1.74c-.667-.582-1.522-.957-2.566-1.121l-.064-.995c.836.082 1.608.145 2.318.185h3.69c.502.043 1.001.064 1.503.064.46.04.919.061 1.376.061.502 0 .982.043 1.441.125a158.889 158.889 0 0 0-.315 4.605 206.961 206.961 0 0 0-.187 4.168 73.728 73.728 0 0 0-.125 4.231 157.201 157.201 0 0 0-.187 5.038 68.317 68.317 0 0 0 .061 5.102c.083 1.62.23 3.048.438 4.293.209 1.202.542 1.99 1.002 2.362.251.167.587.335 1.001.5.334.166.774.331 1.316.498.583.165 1.293.332 2.126.497l.064 1.059a24.003 24.003 0 0 0-2.441 0h-2.002c-.71.04-1.378.06-2.003.06-.876.043-1.816.126-2.817.25-.833.083-1.773.186-2.817.31-1.041.126-2.043.272-3.004.436l-.438-.746Zm6.446-37.269c-1.292.085-2.294-.204-3.004-.868-.708-.706-1.105-1.494-1.188-2.365a3.45 3.45 0 0 1 .689-2.426c.584-.788 1.5-1.266 2.753-1.433 1.292-.165 2.315.106 3.068.812.79.703 1.249 1.513 1.375 2.426.125.87-.104 1.72-.689 2.548-.582.789-1.583 1.224-3.004 1.306Z" fill="var(--color__text--main)"/>
</svg>
